<svg width="732" height="467" viewBox="0 0 732 467" fill="none" xmlns="http://www.w3.org/2000/svg">
<g clip-path="url(#clip0_3_142)">
<path d="M891.785 456.602H576.02C567.09 456.602 559.825 450.499 559.825 442.997V-35.809C559.825 -43.3107 567.09 -49.4146 576.02 -49.4146H891.785C900.715 -49.4146 907.979 -43.3107 907.979 -35.809V442.997C907.979 450.499 900.715 456.602 891.785 456.602V456.602ZM699.438 -47.1425C623.826 -47.1425 562.53 4.35445 562.53 67.8792V442.997C562.53 449.256 568.569 454.33 576.02 454.33H891.785C899.235 454.33 905.275 449.256 905.275 442.997V-35.809C905.275 -42.0683 899.235 -47.1425 891.785 -47.1425H699.438V-47.1425Z" fill="#E6E6E6"/>
<path d="M567.048 285.574L571.177 377.497H561.127V387.904H589.216V377.497H581.023L581.608 285.574H567.048Z" fill="#171717"/>
<path d="M556.21 362.755H556.21C560.485 362.755 563.951 365.667 563.951 369.259V396.142C563.951 399.734 560.485 402.646 556.21 402.646H556.21C551.934 402.646 548.468 399.734 548.468 396.142V369.259C548.468 365.667 551.934 362.755 556.21 362.755Z" fill="#171717"/>
<path d="M595.434 362.755H595.434C599.709 362.755 603.175 365.667 603.175 369.259V396.142C603.175 399.734 599.709 402.646 595.434 402.646H595.434C591.158 402.646 587.692 399.734 587.692 396.142V369.259C587.692 365.667 591.158 362.755 595.434 362.755Z" fill="#171717"/>
<path d="M658.398 228.301L499.438 222.23L524.211 212.691L663.559 214.426L658.398 228.301Z" fill="#07393C"/>
<path d="M24.6206 241.78L43.8181 235.71L639.819 248.718L664.592 239.179L654.27 298.148L180.84 255.766L24.6206 241.78Z" fill="#07393C"/>
<path d="M177.904 276.035L180.84 255.766L654.27 298.148L651.689 328.067L177.904 276.035Z" fill="#171717"/>
<path d="M496.341 335.872C523.42 335.872 545.371 316.265 545.371 292.078C545.371 267.891 523.42 248.284 496.341 248.284C469.263 248.284 447.311 267.891 447.311 292.078C447.311 316.265 469.263 335.872 496.341 335.872Z" fill="#171717"/>
<path d="M496.341 314.625C516.294 314.625 532.469 301.036 532.469 284.273C532.469 267.51 516.294 253.921 496.341 253.921C476.389 253.921 460.214 267.51 460.214 284.273C460.214 301.036 476.389 314.625 496.341 314.625Z" fill="#07393C"/>
<path d="M823.294 211.665L820.951 226.171L819.733 304.254C819.64 310.064 818.804 315.805 817.235 321.372C812.714 337.589 802.155 352.34 786.558 363.032C772.406 372.745 753.104 380.099 727.557 378.798C659.431 375.329 653.413 326.619 653.413 326.619L655.983 238.286L656.334 226.171L659.431 204.311C659.431 204.311 667.688 142.74 744.072 144.475C820.456 146.209 823.294 211.665 823.294 211.665V211.665Z" fill="#07393C"/>
<path d="M675.946 191.303L691.429 170.491L711.041 165.287H778.135L794.65 170.491L809.638 191.303L782.264 180.897H705.474L675.946 191.303Z" fill="#E6E6E6"/>
<path d="M732.726 340.934L735.374 399.904H728.927V406.579H746.947V399.904H741.691L742.067 340.934H732.726Z" fill="#171717"/>
<path d="M725.773 390.446C728.516 390.446 730.739 392.314 730.739 394.619V411.864C730.739 414.169 728.516 416.037 725.773 416.037C723.03 416.037 720.807 414.169 720.807 411.864V394.619C720.807 392.314 723.03 390.446 725.773 390.446Z" fill="#171717"/>
<path d="M713.511 152.505L699.251 195.64L701.999 196.281L716.259 153.146L713.511 152.505Z" fill="#07393C"/>
<path d="M558.866 141.463C569.105 141.463 577.406 134.489 577.406 125.886C577.406 117.284 569.105 110.31 558.866 110.31C548.626 110.31 540.326 117.284 540.326 125.886C540.326 134.489 548.626 141.463 558.866 141.463Z" fill="#07393C"/>
<path d="M139.062 418.245C139.062 419.056 140.144 419.707 141.492 419.707H558.679C560.027 419.707 561.11 419.056 561.11 418.245C561.11 417.434 560.027 416.783 558.679 416.783H141.492C140.144 416.783 139.062 417.434 139.062 418.245Z" fill="#E6E6E6"/>
<path d="M304.743 431.958C314.983 431.958 323.283 424.984 323.283 416.381C323.283 407.779 314.983 400.805 304.743 400.805C294.504 400.805 286.203 407.779 286.203 416.381C286.203 424.984 294.504 431.958 304.743 431.958Z" fill="#07393C"/>
</g>
<defs>
<clipPath id="clip0_3_142">
<rect width="763" height="526" fill="white" transform="translate(-31 -59)"/>
</clipPath>
</defs>
</svg>
