<svg width="763" height="526" viewBox="0 0 763 526" fill="none" xmlns="http://www.w3.org/2000/svg">
<g clip-path="url(#clip0_3_142)">
<path d="M930.533 512.084H599.456C590.093 512.084 582.476 503.914 582.476 493.874V-146.961C582.476 -157.001 590.093 -165.171 599.456 -165.171H930.533C939.896 -165.171 947.513 -157.001 947.513 -146.961V493.874C947.513 503.914 939.896 512.084 930.533 512.084V512.084ZM728.859 -162.13C649.58 -162.13 585.312 -93.2062 585.312 -8.1845V493.874C585.312 502.252 591.644 509.043 599.456 509.043H930.533C938.345 509.043 944.678 502.252 944.678 493.874V-146.961C944.678 -155.339 938.345 -162.13 930.533 -162.13H728.859V-162.13Z" fill="#E6E6E6"/>
<path d="M590.049 283.179L594.378 406.209H583.841V420.137H613.292V406.209H604.702L605.316 283.179H590.049Z" fill="#171717"/>
<path d="M578.685 386.478H578.685C583.168 386.478 586.802 390.375 586.802 395.183V431.163C586.802 435.971 583.168 439.868 578.685 439.868H578.685C574.202 439.868 570.568 435.971 570.568 431.163V395.183C570.568 390.375 574.202 386.478 578.685 386.478Z" fill="#171717"/>
<path d="M619.811 386.478H619.811C624.294 386.478 627.928 390.375 627.928 395.183V431.163C627.928 435.971 624.294 439.868 619.811 439.868H619.811C615.328 439.868 611.694 435.971 611.694 431.163V395.183C611.694 390.375 615.328 386.478 619.811 386.478Z" fill="#171717"/>
<path d="M685.829 206.524L519.16 198.4L545.135 185.632L691.241 187.954L685.829 206.524Z" fill="#575EFC"/>
<path d="M21.3177 224.565L41.4462 216.441L666.349 233.851L692.323 221.083L681.5 300.008L185.113 243.283L21.3177 224.565Z" fill="#575EFC"/>
<path d="M182.034 270.412L185.113 243.283L681.5 300.009L678.795 340.051L182.034 270.412Z" fill="#171717"/>
<path d="M515.913 350.497C544.305 350.497 567.321 324.255 567.321 291.884C567.321 259.513 544.305 233.27 515.913 233.27C487.522 233.27 464.506 259.513 464.506 291.884C464.506 324.255 487.522 350.497 515.913 350.497Z" fill="#171717"/>
<path d="M515.913 322.061C536.834 322.061 553.793 303.873 553.793 281.438C553.793 259.002 536.834 240.815 515.913 240.815C494.993 240.815 478.034 259.002 478.034 281.438C478.034 303.873 494.993 322.061 515.913 322.061Z" fill="#575EFC"/>
<path d="M858.721 184.259L856.265 203.673L854.988 308.18C854.89 315.956 854.014 323.64 852.369 331.091C847.628 352.795 836.557 372.538 820.203 386.849C805.366 399.849 785.127 409.691 758.341 407.95C686.912 403.308 680.602 338.113 680.602 338.113L683.297 219.888L683.665 203.673L686.912 174.417C686.912 174.417 695.57 92.0098 775.657 94.3311C855.745 96.6524 858.721 184.259 858.721 184.259V184.259Z" fill="#575EFC"/>
<path d="M704.228 157.007L720.462 129.151L741.025 122.187H811.372L828.689 129.151L844.403 157.007L815.701 143.079H735.188L704.228 157.007Z" fill="#E6E6E6"/>
<path d="M763.761 357.273L766.538 436.198H759.778V445.133H778.672V436.198H773.161L773.555 357.273H763.761Z" fill="#171717"/>
<path d="M756.471 423.54C759.347 423.54 761.678 426.04 761.678 429.125V452.206C761.678 455.291 759.347 457.791 756.471 457.791C753.595 457.791 751.264 455.291 751.264 452.206V429.125C751.264 426.04 753.595 423.54 756.471 423.54Z" fill="#171717"/>
<path d="M743.615 105.079L728.663 162.811L731.544 163.669L746.496 105.937L743.615 105.079Z" fill="#575EFC"/>
<path d="M581.47 90.2998C592.206 90.2998 600.909 80.9661 600.909 69.4524C600.909 57.9387 592.206 48.605 581.47 48.605C570.734 48.605 562.031 57.9387 562.031 69.4524C562.031 80.9661 570.734 90.2998 581.47 90.2998Z" fill="#575EFC"/>
<path d="M141.309 460.747C141.309 461.832 142.444 462.703 143.857 462.703H581.275C582.688 462.703 583.823 461.832 583.823 460.747C583.823 459.661 582.688 458.79 581.275 458.79H143.857C142.444 458.79 141.309 459.661 141.309 460.747Z" fill="#E6E6E6"/>
<path d="M315.024 479.099C325.76 479.099 334.464 469.766 334.464 458.252C334.464 446.738 325.76 437.404 315.024 437.404C304.288 437.404 295.585 446.738 295.585 458.252C295.585 469.766 304.288 479.099 315.024 479.099Z" fill="#575EFC"/>
</g>
<defs>
<clipPath id="clip0_3_142">
<rect width="800" height="704" fill="white" transform="translate(-37 -178)"/>
</clipPath>
</defs>
</svg>
